<svg xmlns="http://www.w3.org/2000/svg" xmlns:xlink="http://www.w3.org/1999/xlink" width="23.708" height="15.75" viewBox="0 0 23.708 15.75"><defs><style>.a,.b{fill:none;}.a{clip-rule:evenodd;}.c{clip-path:url(#a);}.d{clip-path:url(#b);}</style><clipPath id="a"><path class="a" d="M2023.09-3957.376q-1.905,0-4.446-.005c-1.586,0-9.534.007-10.015-.029a1.932,1.932,0,0,1-1.738-1.384,1.979,1.979,0,0,1,.781-2.163c1.6-1.2,6.312-4.076,8.844-5.623l1.04-.637c1.212-.74,2.464-1.507,2.483-2.748.018-1.113-.53-1.522-1.049-1.534a1.319,1.319,0,0,0-1.249,1.459l-1.624-.046a2.913,2.913,0,0,1,2.909-3.038c1.3.029,2.673,1.038,2.638,3.184s-1.822,3.23-3.259,4.109l-1.042.637c-2.33,1.424-7.18,4.386-8.716,5.536-.167.126-.237.27-.2.407a.314.314,0,0,0,.3.221c.39.023,6.134.029,9.9.024,8.46.017,9.773-.012,9.945-.024a.307.307,0,0,0,.294-.214c.042-.139-.03-.287-.2-.419-1.418-1.088-7.5-4.789-7.563-4.826l.844-1.389c.254.155,6.222,3.784,7.708,4.927a1.993,1.993,0,0,1,.768,2.172,1.93,1.93,0,0,1-1.731,1.369c-.307.023-2.192.034-5.619.034"/></clipPath><clipPath id="b"><path class="b" d="M2006-3952h26v-26h-26Z"/></clipPath></defs><g class="c" transform="translate(-2006.813 3973.125)"><g class="d"><path d="M2001.812-3978.125h33.709v25.749h-33.709Z"/></g></g></svg>
