<svg xmlns="http://www.w3.org/2000/svg" viewBox="0 0 51 28">
  <g fill="none">
    <rect width="50.4" height="28" fill="#FFB3C7" rx="4.321"/>
    <path fill="#0A0B09" d="M45.6886,16.403856 C45.0292,16.403856 44.49468,16.9432256 44.49468,17.60864 C44.49468,18.27392 45.0292,18.813424 45.6886,18.813424 C46.3479888,18.813424 46.882632,18.2739536 46.882632,17.60864 C46.882632,16.9431808 46.3480112,16.403856 45.6886,16.403856 Z M41.760424,15.4723968 C41.760424,14.5614112 40.9887776,13.8230848 40.036856,13.8230848 C39.0849344,13.8230848 38.313176,14.5614448 38.313176,15.4723968 C38.313176,16.3833936 39.0848336,17.1219328 40.036856,17.1219328 C40.9888784,17.1219328 41.760424,16.3833936 41.760424,15.4723968 Z M41.7668246,12.2667328 L43.6690326,12.2667328 L43.6690326,18.6778368 L41.7668246,18.6778368 L41.7668246,18.268096 C41.2294262,18.63792 40.5807446,18.8553232 39.8810806,18.8553232 C38.0296086,18.8553232 36.5285846,17.3407472 36.5285846,15.4723632 C36.5285846,13.6039792 38.0296086,12.0895152 39.8810806,12.0895152 C40.5807446,12.0895152 41.2294486,12.3069072 41.7668246,12.6768432 L41.7668246,12.2667104 L41.7668246,12.2667328 Z M26.5437846,13.1018272 L26.5437846,12.2668224 L24.5962166,12.2668224 L24.5962166,18.6778144 L26.5481526,18.6778144 L26.5481526,15.6846144 C26.5481526,14.674744 27.6328614,14.1319584 28.3855126,14.1319584 C28.3932202,14.1319584 28.4004153,14.1327062 28.4081231,14.1328014 L28.4081231,12.2673294 C27.6356255,12.2673294 26.9251311,12.6010894 26.5437711,13.1019534 L26.5437846,13.1018272 Z M21.6923926,15.4724192 C21.6923926,14.5614336 20.9206566,13.8231072 19.9687126,13.8231072 C19.0168134,13.8231072 18.2450326,14.5614672 18.2450326,15.4724192 C18.2450326,16.383416 19.0167686,17.1219552 19.9687126,17.1219552 C20.9206902,17.1219552 21.6923926,16.383416 21.6923926,15.4724192 Z M21.6986854,12.2667552 L23.6010054,12.2667552 L23.6010054,18.6778592 L21.6986854,18.6778592 L21.6986854,18.2681184 C21.161287,18.6379424 20.5126054,18.8553456 19.8130534,18.8553456 C17.9614694,18.8553456 16.4604454,17.3407696 16.4604454,15.4723856 C16.4604454,13.6040016 17.9614694,12.0895376 19.8130534,12.0895376 C20.5126502,12.0895376 21.1613094,12.3069296 21.6986854,12.6768656 L21.6986854,12.2667328 L21.6986854,12.2667552 Z M33.1484454,12.09432 C32.3885702,12.09432 31.6693734,12.332376 31.1885574,12.989144 L31.1885574,12.267136 L29.2945254,12.267136 L29.2945254,18.677904 L31.2118534,18.677904 L31.2118534,15.308832 C31.2118534,14.3339168 31.8597398,13.856528 32.6398534,13.856528 C33.4758886,13.856528 33.9565254,14.3604832 33.9565254,15.295616 L33.9565254,18.677904 L35.8564934,18.677904 L35.8564934,14.600992 C35.8564934,13.10904 34.6809414,12.094432 33.1484454,12.094432 L33.1484454,12.09432 Z M13.6895654,18.677904 L15.6805894,18.677904 L15.6805894,9.409792 L13.6895654,9.409792 L13.6895654,18.677904 L13.6895654,18.677904 Z M4.94337341,18.6804331 L7.05166141,18.6804331 L7.05166141,9.40806507 L4.94337341,9.40806507 L4.94337341,18.6804331 Z M12.3174534,9.40804267 C12.3174534,11.4154411 11.5422006,13.2828171 10.1607814,14.6708331 L13.0750214,18.6807691 L10.4710214,18.6807691 L7.30388541,14.3228491 L8.12127261,13.7051467 C9.47680861,12.6805259 10.2543126,11.1143627 10.2543126,9.40804267 L12.3174646,9.40804267 L12.3174534,9.40804267 Z"/>
  </g>
</svg>
